<svg width="107" height="101" viewBox="0 0 107 101" fill="none" xmlns="http://www.w3.org/2000/svg">
<path d="M74.6982 24.5252C69.5609 19.7392 63.1197 16.5841 56.1892 15.4589C49.2587 14.3336 42.1502 15.2887 35.7626 18.2035C29.3749 21.1182 23.9951 25.8617 20.3033 31.834C16.6115 37.8063 14.7736 44.7392 15.022 51.7561C15.2705 58.7729 17.5941 65.5585 21.699 71.2548C25.8039 76.9511 31.5057 81.3022 38.0835 83.7579C44.6613 86.2136 51.8196 86.6636 58.6531 85.051C65.4867 83.4384 71.6886 79.8357 76.4746 74.6984L69.8019 68.482C66.2454 72.2996 61.6367 74.9768 56.5586 76.1752C51.4805 77.3735 46.1612 77.0391 41.2732 75.2142C36.3851 73.3893 32.148 70.156 29.0976 65.9231C26.0473 61.6901 24.3206 56.6477 24.136 51.4334C23.9514 46.2191 25.3171 41.0672 28.0605 36.6291C30.8039 32.1911 34.8017 28.6662 39.5484 26.5002C44.2952 24.3342 49.5776 23.6244 54.7277 24.4606C59.8778 25.2968 64.6642 27.6414 68.4818 31.1979L74.6982 24.5252Z" fill="#FF385C"/>
<path d="M50 44C50 44 61 61.5 74.5 56.5C88 51.5 102 19 102 19" stroke="#FF385C" stroke-width="9"/>
</svg>
